<?xml version="1.0" ?><svg height="512" id="svg2" version="1.1" width="512" xmlns="http://www.w3.org/2000/svg" xmlns:cc="http://creativecommons.org/ns#" xmlns:dc="http://purl.org/dc/elements/1.1/" xmlns:inkscape="http://www.inkscape.org/namespaces/inkscape" xmlns:rdf="http://www.w3.org/1999/02/22-rdf-syntax-ns#" xmlns:sodipodi="http://sodipodi.sourceforge.net/DTD/sodipodi-0.dtd" xmlns:svg="http://www.w3.org/2000/svg"><defs id="defs4"/><g id="layer1" transform="translate(0,-540.3622)"><path d="m 255.71875,588.75 c -5.14903,0.0739 -10.2385,2.22892 -13.875,5.875 L 58.5625,777.90625 c -3.701032,3.70256 -5.855526,8.90549 -5.855526,14.14062 0,5.23514 2.154494,10.43807 5.855526,14.14063 l 54.9375,54.96875 0,122.8125 c 5.1e-4,5.23585 2.15613,10.43927 5.85843,14.14158 3.7023,3.70227 8.90572,5.85797 14.14157,5.85847 l 65,0 c 5.23585,-5e-4 10.43927,-2.1562 14.14157,-5.85847 3.7023,-3.70231 5.85792,-8.90573 5.85843,-14.14158 l 0,-145 75,0 0,145 c 5.1e-4,5.23585 2.15613,10.43927 5.85843,14.14158 3.7023,3.70227 8.90572,5.85797 14.14157,5.85847 l 65,0 c 5.23585,-5e-4 10.43927,-2.1562 14.14157,-5.85847 3.7023,-3.70231 5.85792,-8.90573 5.85843,-14.14158 l 0,-122.84375 54.9375,-54.9375 c 3.70103,-3.70256 5.85553,-8.90549 5.85553,-14.14063 0,-5.23513 -2.1545,-10.43806 -5.85553,-14.14062 L 270.15625,594.625 c -3.76894,-3.77878 -9.10096,-5.94852 -14.4375,-5.875 z" id="path3766-1" style="font-size:medium;font-style:normal;font-variant:normal;font-weight:normal;font-stretch:normal;text-indent:0;text-align:start;text-decoration:none;line-height:normal;letter-spacing:normal;word-spacing:normal;text-transform:none;direction:ltr;block-progression:tb;writing-mode:lr-tb;text-anchor:start;baseline-shift:baseline;color:#000000;fill:#222222;fill-opacity:1;fill-rule:nonzero;stroke:none;stroke-width:40;marker:none;visibility:visible;display:inline;overflow:visible;enable-background:accumulate;font-family:Sans;-inkscape-font-specification:Sans"/></g></svg>